Coordinates
version=1
nRows=4
nColumns=107
inDegrees=yes

Units are S.I. units (second, meters, Newtons, ...)
If the header above contains a line with 'inDegrees', this indicates whether rotational values are in degrees (yes) or radians (no).

endheader
time	sternoclavicular_r2	sternoclavicular_r3	unrotscap_r3	unrotscap_r2	acromioclavicular_r2	acromioclavicular_r3	acromioclavicular_r1	unrothum_r1	unrothum_r3	unrothum_r2	elv_angle	shoulder_elv	shoulder1_r2	shoulder_rot	elbow_flexion	pro_sup	deviation	flexion	proximal_distal_r1	proximal_distal_r3	cmc_flexion	cmc_abduction	mp_flexion	ip_flexion	mcp2_flexion	mcp2_abduction	pm2_flexion	md2_flexion	mcp3_flexion	mcp3_abduction	pm3_flexion	md3_flexion	mcp4_flexion	mcp4_abduction	pm4_flexion	md4_flexion	mcp5_flexion	mcp5_abduction	pm5_flexion	md5_flexion	bicpt_tx	bicpt_ty	bicpt_tz	bicpt2_tx	bicpt2_ty	bicpt2_tz	ptpt_tx	ptpt_ty	ptpt_tz	FCUpt_tx	FCUpt_ty	FCUpt_tz	EDCpt_tx	EDCpt_ty	EDCpt_tz	APLpt_tx	APLpt_ty	APLpt_tz	FPLpt_tx	FPLpt_ty	FPLpt_tz	FPLpt2_tx	FPLpt2_ty	FPLpt2_tz	PEC1pt2_tx	PEC1pt2_ty	PEC1pt2_tz	PEC1pt3_tx	PEC1pt3_ty	PEC1pt3_tz	PEC2pt2_tx	PEC2pt2_ty	PEC2pt2_tz	PEC2pt3_tx	PEC2pt3_ty	PEC2pt3_tz	PEC3pt2_tx	PEC3pt2_ty	PEC3pt2_tz	PEC3pt3_tx	PEC3pt3_ty	PEC3pt3_tz	DELT2pt2a_tx	DELT2pt2a_ty	DELT2pt2a_tz	DELT2pt2_tx	DELT2pt2_ty	DELT2pt2_tz	LAT1pt2_tx	LAT1pt2_ty	LAT1pt2_tz	LAT1pt3_tx	LAT1pt3_ty	LAT1pt3_tz	LAT2pt2_tx	LAT2pt2_ty	LAT2pt2_tz	LAT2pt3_tx	LAT2pt3_ty	LAT2pt3_tz	LAT3pt2_tx	LAT3pt2_ty	LAT3pt2_tz	LAT3pt3_tx	LAT3pt3_ty	LAT3pt3_tz
      0.96666667	     -0.30287293	      0.12828268	     -0.12828268	      0.30287293	     -0.06132561	      0.49561198	      0.22277418	     -0.22277418	     -0.49561198	      0.06132561	    108.37217342	     71.70785765	     -1.89145124	    -62.09703366	     30.49756997	     84.98040500	      0.38441018	     -0.89730025	      0.40074759	     -0.44865013	     -6.01445079	      6.65206954	    -14.34154645	    -17.16085430	     17.80983058	     10.70509291	     21.00940476	     -6.20777544	     24.94437854	      4.87852766	     60.41971694	     34.75825742	     15.28705252	     -2.43850441	     64.39354847	     27.16002518	     -2.20905214	    -13.74328600	     20.61319350	      5.50704132	      0.00090876	     -0.03109549	     -0.00486303	      0.01434414	     -0.01848481	     -0.00124993	      0.00127091	     -0.06896017	     -0.00689563	      0.01262103	     -0.18227212	      0.00005609	     -0.01019762	      0.00352222	     -0.00072475	      0.00024379	      0.00009752	      0.00048759	      0.00031206	      0.00093617	      0.00052659	     -0.00050300	      0.00017046	      0.00020455	      0.00235043	      0.00824641	      0.00573663	     -0.00768868	      0.01856438	     -0.01760828	      0.00235043	      0.00824641	      0.00573663	      0.00051789	      0.01720990	     -0.00904317	      0.00377549	      0.00458572	      0.01553084	      0.00000000	      0.00687153	      0.00000000	     -0.00673258	     -0.03111327	     -0.00566029	      0.02621675	     -0.00193839	     -0.02738514	     -0.00083659	      0.01402288	     -0.00573663	      0.00231059	      0.02023757	     -0.01673185	     -0.00561712	      0.01215051	     -0.00513907	     -0.01171229	      0.02565550	     -0.02872301	     -0.02199043	      0.01358467	     -0.00689193	     -0.01458061	      0.02963927	     -0.03589380
      1.00000000	     -0.30379803	      0.12867451	     -0.12867451	      0.30379803	     -0.06151292	      0.49712580	      0.22345463	     -0.22345463	     -0.49712580	      0.06151292	    109.12670721	     71.92688506	     -1.90462034	    -64.59692320	     29.72838544	     86.32362380	      0.39676073	     -1.02472697	      0.40961190	     -0.51236348	     -8.83491214	     11.93439849	    -13.30945895	    -14.41310690	     21.20009145	      8.43907600	     20.56171273	     -6.53582310	     20.88200853	      2.00570309	     50.27912519	     28.87136955	      7.37533380	     -4.04624272	     57.22353195	     24.28490319	    -15.54758209	    -13.79842953	     27.93321922	      5.34548576	      0.00088332	     -0.03100733	     -0.00484883	      0.01420633	     -0.01827586	     -0.00102055	      0.00117166	     -0.06902434	     -0.00700383	      0.01277519	     -0.18222676	      0.00009275	     -0.01035881	      0.00359579	     -0.00076764	      0.00016906	      0.00006763	      0.00033813	      0.00021640	      0.00064920	      0.00036518	     -0.00104218	      0.00026424	      0.00031709	      0.00235761	      0.00827160	      0.00575416	     -0.00771217	      0.01862109	     -0.01766206	      0.00235761	      0.00827160	      0.00575416	      0.00051947	      0.01726247	     -0.00907079	      0.00378413	      0.00459973	      0.01555344	      0.00000000	      0.00691381	      0.00000000	     -0.00675314	     -0.03120830	     -0.00569543	      0.02620992	     -0.00203203	     -0.02910995	     -0.00083915	      0.01406571	     -0.00575416	      0.00231765	      0.02029938	     -0.01678295	     -0.00563428	      0.01218762	     -0.00515476	     -0.01174807	      0.02573386	     -0.02881074	     -0.02205760	      0.01362616	     -0.00691298	     -0.01462515	      0.02972980	     -0.03600343
      1.03333333	     -0.30436208	      0.12891341	     -0.12891341	      0.30436208	     -0.06162713	      0.49804879	      0.22386950	     -0.22386950	     -0.49804879	      0.06162713	    109.26320031	     72.06042832	     -1.90700260	    -65.48559707	     29.45935260	     86.94032607	      0.40493296	     -1.09865495	      0.41533987	     -0.54932748	    -10.44512182	     16.17000132	    -14.52569959	    -12.12665928	     22.85876184	      5.29571302	     19.60526933	     -7.32502229	     15.06144003	     -0.61934477	     43.77725588	     24.62014540	     -2.06487529	     -5.59510416	     52.51823713	     23.01408348	    -28.35078473	    -13.77728911	     29.47132460	      5.25113204	      0.00087442	     -0.03097649	     -0.00484386	      0.01414170	     -0.01820278	     -0.00091439	      0.00112609	     -0.06905381	     -0.00705351	      0.01284616	     -0.18220577	      0.00011003	     -0.01043281	      0.00362975	     -0.00078765	      0.00011324	      0.00004530	      0.00022648	      0.00014494	      0.00043483	      0.00024459	     -0.00146418	      0.00032174	      0.00038609	      0.00236198	      0.00828696	      0.00576484	     -0.00772649	      0.01865566	     -0.01769485	      0.00236198	      0.00828696	      0.00576484	      0.00052044	      0.01729452	     -0.00908763	      0.00378939	      0.00460827	      0.01556716	      0.00000000	      0.00693965	      0.00000000	     -0.00676568	     -0.03126625	     -0.00571691	      0.02618735	     -0.00206517	     -0.02972275	     -0.00084071	      0.01409183	     -0.00576484	      0.00232195	      0.02033707	     -0.01681411	     -0.00564474	      0.01221025	     -0.00516434	     -0.01176988	      0.02578164	     -0.02886423	     -0.02209855	      0.01365146	     -0.00692581	     -0.01465230	      0.02978500	     -0.03607028
      1.06666667	     -0.30424682	      0.12886459	     -0.12886459	      0.30424682	     -0.06160379	      0.49786017	      0.22378472	     -0.22378472	     -0.49786017	      0.06160379	    109.02303096	     72.03313815	     -1.90281085	    -65.49116186	     29.68866480	     87.49798802	      0.41085586	     -1.13851006	      0.41942323	     -0.56925503	    -11.50653639	     19.22829302	    -15.19133821	    -11.64642200	     23.47941925	      1.88155291	     18.98057717	     -7.83858994	      9.86305794	     -3.10323499	     38.53713648	     22.38071718	    -10.15611529	     -7.21740622	     48.35709654	     22.00736913	    -38.21827475	    -13.72370284	     26.19089404	      5.25953910	      0.00088201	     -0.03100277	     -0.00484810	      0.01408250	     -0.01826507	     -0.00081794	      0.00108489	     -0.06908045	     -0.00709843	      0.01291043	     -0.18218669	      0.00012590	     -0.01049973	      0.00366056	     -0.00080593	      0.00007935	      0.00003174	      0.00015870	      0.00010157	      0.00030470	      0.00017139	     -0.00179342	      0.00036122	      0.00043346	      0.00236109	      0.00828382	      0.00576266	     -0.00772356	      0.01864859	     -0.01768815	      0.00236109	      0.00828382	      0.00576266	      0.00052024	      0.01728797	     -0.00908419	      0.00378832	      0.00460653	      0.01556436	      0.00000000	      0.00693436	      0.00000000	     -0.00676312	     -0.03125440	     -0.00571252	      0.02618721	     -0.00206538	     -0.02972658	     -0.00084039	      0.01408649	     -0.00576266	      0.00232107	      0.02032937	     -0.01680775	     -0.00564260	      0.01220563	     -0.00516238	     -0.01176542	      0.02577188	     -0.02885330	     -0.02209018	      0.01364629	     -0.00692319	     -0.01464675	      0.02977372	     -0.03605662
